<svg width="22" height="16" viewBox="0 0 22 16" fill="none" xmlns="http://www.w3.org/2000/svg">
<path d="M7.59998 15.3999C7.46665 15.3999 7.34443 15.3776 7.23332 15.3332C7.12221 15.2888 7.01109 15.211 6.89998 15.0999L0.86665 9.06654C0.66665 8.86654 0.56665 8.62209 0.56665 8.3332C0.56665 8.04431 0.66665 7.79987 0.86665 7.59987C1.06665 7.39987 1.29998 7.29987 1.56665 7.29987C1.83332 7.29987 2.06665 7.39987 2.26665 7.59987L7.59998 12.9332L19.7 0.833203C19.9 0.633203 20.1389 0.533203 20.4166 0.533203C20.6944 0.533203 20.9333 0.633203 21.1333 0.833203C21.3333 1.0332 21.4333 1.27209 21.4333 1.54987C21.4333 1.82765 21.3333 2.06654 21.1333 2.26654L8.29998 15.0999C8.18887 15.211 8.07776 15.2888 7.96665 15.3332C7.85554 15.3776 7.73332 15.3999 7.59998 15.3999Z" fill="#3A5295"/>
</svg>
