<svg width="7" height="12" viewBox="0 0 7 12" fill="none" xmlns="http://www.w3.org/2000/svg">
<path d="M0.250103 6.0001C0.250103 5.9001 0.26677 5.80843 0.300103 5.7251C0.333437 5.64176 0.39177 5.56676 0.475104 5.5001L5.2251 0.750098C5.3251 0.650098 5.45844 0.600098 5.6251 0.600098C5.79177 0.600098 5.9251 0.650098 6.0251 0.750098C6.15844 0.883431 6.21677 1.02093 6.2001 1.1626C6.18344 1.30426 6.1251 1.43343 6.0251 1.5501L1.5751 6.0001L6.0251 10.4501C6.1251 10.5501 6.17927 10.6834 6.1876 10.8501C6.19594 11.0168 6.14177 11.1501 6.0251 11.2501C5.90844 11.3834 5.77094 11.4418 5.6126 11.4251C5.45427 11.4084 5.31677 11.3501 5.2001 11.2501L0.475104 6.5001C0.39177 6.43343 0.333437 6.35843 0.300103 6.2751C0.26677 6.19176 0.250103 6.1001 0.250103 6.0001Z" fill="black"/>
</svg>
